<svg xmlns="http://www.w3.org/2000/svg" width="45" height="47" fill="none" viewBox="0 0 45 47"><g clip-path="url(#clip0)"><path fill="#2D7DE4" d="M39 0H23.54V20.48H44V5C44 3.67392 43.4733 2.40215 42.5356 1.46447C41.5979 0.526784 40.3261 0 39 0"/><path fill="#041A3B" d="M39.0001 25.9H28.5801C27.254 25.9 25.9822 26.4268 25.0445 27.3645C24.1069 28.3021 23.5801 29.5739 23.5801 30.9V46.37H44.0001V30.94C44.0001 29.6139 43.4733 28.3422 42.5356 27.4045C41.5979 26.4668 40.3262 25.94 39.0001 25.94"/><path fill="#041A3B" d="M17.54 46.38H5.12C3.76209 46.38 2.4598 45.8406 1.49961 44.8804C0.539427 43.9202 0 42.6179 0 41.26L0 5.12C0 3.76209 0.539427 2.4598 1.49961 1.49961C2.4598 0.539427 3.76209 0 5.12 0L17.54 0V46.38Z"/></g><defs><clipPath id="clip0"><rect width="44.01" height="46.38" fill="#fff"/></clipPath></defs></svg>